<?xml version="1.0" encoding="UTF-8" standalone="no"?>
<svg
   xmlns:dc="http://purl.org/dc/elements/1.1/"
   xmlns:cc="http://creativecommons.org/ns#"
   xmlns:rdf="http://www.w3.org/1999/02/22-rdf-syntax-ns#"
   xmlns:svg="http://www.w3.org/2000/svg"
   xmlns="http://www.w3.org/2000/svg"
   xmlns:sodipodi="http://sodipodi.sourceforge.net/DTD/sodipodi-0.dtd"
   xmlns:inkscape="http://www.inkscape.org/namespaces/inkscape"
   width="110mm"
   height="60mm"
   viewBox="0 0 110 60"
   version="1.1"
   id="svg1084"
   inkscape:version="1.0.1 (3bc2e813f5, 2020-09-07)"
   sodipodi:docname="pikahead.svg">
  <defs
     id="defs1078" />
  <sodipodi:namedview
     id="base"
     pagecolor="#ffffff"
     bordercolor="#666666"
     borderopacity="1.0"
     inkscape:pageopacity="0.0"
     inkscape:pageshadow="2"
     inkscape:zoom="0.49497475"
     inkscape:cx="301.25314"
     inkscape:cy="377.56937"
     inkscape:document-units="mm"
     inkscape:current-layer="layer1"
     inkscape:document-rotation="0"
     showgrid="false"
     inkscape:window-width="1267"
     inkscape:window-height="720"
     inkscape:window-x="52"
     inkscape:window-y="0"
     inkscape:window-maximized="0" />
  <metadata
     id="metadata1081">
    <rdf:RDF>
      <cc:Work
         rdf:about="">
        <dc:format>image/svg+xml</dc:format>
        <dc:type
           rdf:resource="http://purl.org/dc/dcmitype/StillImage" />
        <dc:title></dc:title>
      </cc:Work>
    </rdf:RDF>
  </metadata>
  <g
     inkscape:label="Layer 1"
     inkscape:groupmode="layer"
     id="layer1">
    <g
       id="g1708"
       transform="matrix(1.3679916,-0.03251268,0.03251268,1.3679916,-116.20048,-105.06907)"
       inkscape:transform-center-x="-1.3024534"
       inkscape:transform-center-y="-22.416543">
      <path
         style="fill:#ffe402;fill-opacity:1;stroke:#000000;stroke-width:0.965;stroke-linecap:butt;stroke-linejoin:miter;stroke-miterlimit:4;stroke-dasharray:none;stroke-opacity:1"
         d="m 107.86955,94.869614 c -8.992677,-0.48822 -19.736717,-7.81414 -20.491367,-11.372689 3.08038,-1.151107 10.29834,0.033 14.883997,1.64234 4.58565,1.609369 8.16306,3.882769 10.31313,5.632979 2.30801,-1.39815 6.42129,-2.3576 9.55564,-2.2307 4.05137,0.16403 7.97924,1.43141 9.84604,2.66149 2.65007,-2.29111 7.67272,-4.87268 12.99654,-6.284059 4.87508,-1.29241 13.45342,-1.939409 13.42098,-0.83838 -0.0297,1.00856 -7.03167,6.191769 -11.51016,8.215089 -3.51181,1.58659 -8.05948,3.12758 -10.62508,3.50217 0.72677,1.67631 1.18688,5.166676 1.05565,8.782206 0.80512,3.10944 1.11995,5.90104 -0.0463,8.43189 -1.11668,2.42335 -4.9276,5.54029 -8.29354,6.72008 l -14.89422,-0.26293 c -3.27848,-1.30496 -6.80128,-4.39977 -8.2378,-6.39058 -1.77854,-2.46482 -0.6784,-6.48058 0.61584,-8.87683 0.33506,-8.092256 0.73961,-7.707566 1.41065,-9.332076 z"
         id="path1668"
         sodipodi:nodetypes="cczcscsssccsccscc"
         inkscape:transform-center-x="-1.4812076"
         inkscape:transform-center-y="-17.411703" />
      <path
         style="color:#000000;font-style:normal;font-variant:normal;font-weight:normal;font-stretch:normal;font-size:medium;line-height:normal;font-family:sans-serif;font-variant-ligatures:normal;font-variant-position:normal;font-variant-caps:normal;font-variant-numeric:normal;font-variant-alternates:normal;font-variant-east-asian:normal;font-feature-settings:normal;font-variation-settings:normal;text-indent:0;text-align:start;text-decoration:none;text-decoration-line:none;text-decoration-style:solid;text-decoration-color:#000000;letter-spacing:normal;word-spacing:normal;text-transform:none;writing-mode:lr-tb;direction:ltr;text-orientation:mixed;dominant-baseline:auto;baseline-shift:baseline;text-anchor:start;white-space:normal;shape-padding:0;shape-margin:0;inline-size:0;clip-rule:nonzero;display:inline;overflow:visible;visibility:visible;opacity:1;isolation:auto;mix-blend-mode:normal;color-interpolation:sRGB;color-interpolation-filters:linearRGB;solid-color:#000000;solid-opacity:1;vector-effect:none;fill:#000000;fill-opacity:1;fill-rule:nonzero;stroke:none;stroke-width:0.256958px;stroke-linecap:butt;stroke-linejoin:miter;stroke-miterlimit:4;stroke-dasharray:none;stroke-dashoffset:0;stroke-opacity:1;color-rendering:auto;image-rendering:auto;shape-rendering:auto;text-rendering:auto;enable-background:accumulate;stop-color:#000000;stop-opacity:1"
         d="m 107.58198,95.091154 0.5216,0.23191 c 0.5586,-0.99389 2.15285,-2.6044 2.92385,-3.24708 -1.414,0.74481 -3.06399,2.46089 -3.44545,3.01517 z"
         id="path1670"
         sodipodi:nodetypes="cccc"
         inkscape:transform-center-x="12.100478"
         inkscape:transform-center-y="-25.096837" />
      <path
         style="color:#000000;font-style:normal;font-variant:normal;font-weight:normal;font-stretch:normal;font-size:medium;line-height:normal;font-family:sans-serif;font-variant-ligatures:normal;font-variant-position:normal;font-variant-caps:normal;font-variant-numeric:normal;font-variant-alternates:normal;font-variant-east-asian:normal;font-feature-settings:normal;font-variation-settings:normal;text-indent:0;text-align:start;text-decoration:none;text-decoration-line:none;text-decoration-style:solid;text-decoration-color:#000000;letter-spacing:normal;word-spacing:normal;text-transform:none;writing-mode:lr-tb;direction:ltr;text-orientation:mixed;dominant-baseline:auto;baseline-shift:baseline;text-anchor:start;white-space:normal;shape-padding:0;shape-margin:0;inline-size:0;clip-rule:nonzero;display:inline;overflow:visible;visibility:visible;opacity:1;isolation:auto;mix-blend-mode:normal;color-interpolation:sRGB;color-interpolation-filters:linearRGB;solid-color:#000000;solid-opacity:1;vector-effect:none;fill:#000000;fill-opacity:1;fill-rule:nonzero;stroke:none;stroke-width:0.565;stroke-linecap:butt;stroke-linejoin:miter;stroke-miterlimit:4;stroke-dasharray:none;stroke-dashoffset:0;stroke-opacity:1;color-rendering:auto;image-rendering:auto;shape-rendering:auto;text-rendering:auto;enable-background:accumulate;stop-color:#000000;stop-opacity:1"
         d="m 134.12206,93.098284 c 0.3291,0.37759 1.40298,1.9959 1.76457,2.74043 l 0.50781,-0.24805 c -0.39099,-0.79593 -1.67957,-2.27982 -2.27238,-2.49238 z"
         id="path1672"
         sodipodi:nodetypes="cccc"
         inkscape:transform-center-x="-13.853066"
         inkscape:transform-center-y="-24.327862" />
      <ellipse
         style="fill:#000000;stroke:#000000;stroke-width:0.586322;stroke-linejoin:round;stroke-miterlimit:4;stroke-dasharray:none"
         id="ellipse1674"
         cx="112.27173"
         cy="102.75275"
         rx="2.7195878"
         ry="2.7932644"
         inkscape:transform-center-x="9.1334543"
         inkscape:transform-center-y="-16.043606" />
      <ellipse
         style="fill:#000000;stroke:#000000;stroke-width:0.586322;stroke-linejoin:round;stroke-miterlimit:4;stroke-dasharray:none"
         id="ellipse1676"
         cx="130.99037"
         cy="103.13702"
         rx="2.7195878"
         ry="2.7932644"
         inkscape:transform-center-x="-9.5851889"
         inkscape:transform-center-y="-15.659344" />
      <ellipse
         style="fill:#ffffff;stroke:none;stroke-width:0.243701;stroke-linejoin:round;stroke-miterlimit:4;stroke-dasharray:none"
         id="ellipse1678"
         cx="112.97279"
         cy="101.75521"
         rx="1.1303786"
         ry="1.1610018"
         inkscape:transform-center-x="8.4323893"
         inkscape:transform-center-y="-17.041149" />
      <ellipse
         style="fill:#ffffff;stroke:none;stroke-width:0.243701;stroke-linejoin:round;stroke-miterlimit:4;stroke-dasharray:none"
         id="ellipse1680"
         cx="129.87949"
         cy="102.01283"
         rx="1.1303786"
         ry="1.1610018"
         inkscape:transform-center-x="-8.4743033"
         inkscape:transform-center-y="-16.783535" />
      <path
         style="fill:#000000;stroke:none;stroke-width:0.065;stroke-linecap:butt;stroke-linejoin:miter;stroke-miterlimit:4;stroke-dasharray:none;stroke-opacity:1"
         d="m 120.43951,105.24222 c 0.009,-0.2166 0.52752,-0.2604 0.85158,-0.26518 0.4126,-0.006 0.82835,0.0639 0.83329,0.27591 0.005,0.21473 -0.38945,0.68111 -0.8354,0.68195 -0.57962,0.001 -0.85666,-0.51151 -0.84947,-0.69268 z"
         id="path1682"
         sodipodi:nodetypes="sssss"
         inkscape:transform-center-x="0.12328349"
         inkscape:transform-center-y="-13.340562" />
      <path
         style="color:#000000;font-style:normal;font-variant:normal;font-weight:normal;font-stretch:normal;font-size:medium;line-height:normal;font-family:sans-serif;font-variant-ligatures:normal;font-variant-position:normal;font-variant-caps:normal;font-variant-numeric:normal;font-variant-alternates:normal;font-variant-east-asian:normal;font-feature-settings:normal;font-variation-settings:normal;text-indent:0;text-align:start;text-decoration:none;text-decoration-line:none;text-decoration-style:solid;text-decoration-color:#000000;letter-spacing:normal;word-spacing:normal;text-transform:none;writing-mode:lr-tb;direction:ltr;text-orientation:mixed;dominant-baseline:auto;baseline-shift:baseline;text-anchor:start;white-space:normal;shape-padding:0;shape-margin:0;inline-size:0;clip-rule:nonzero;display:inline;overflow:visible;visibility:visible;opacity:1;isolation:auto;mix-blend-mode:normal;color-interpolation:sRGB;color-interpolation-filters:linearRGB;solid-color:#000000;solid-opacity:1;vector-effect:none;fill:#000000;fill-opacity:1;fill-rule:nonzero;stroke:none;stroke-width:0.465;stroke-linecap:butt;stroke-linejoin:miter;stroke-miterlimit:4;stroke-dasharray:none;stroke-dashoffset:0;stroke-opacity:1;color-rendering:auto;image-rendering:auto;shape-rendering:auto;text-rendering:auto;enable-background:accumulate;stop-color:#000000;stop-opacity:1"
         d="m 121.31057,107.30923 -0.14258,0.125 c -0.98257,0.85543 -2.3579,1.48926 -3.25781,1.52539 -0.32327,0.013 -0.70732,0.001 -1.03711,-0.11523 -0.30936,-0.10935 -0.63011,-0.32912 -0.79102,-0.64844 -0.0745,-0.10481 -0.18942,-0.15304 -0.33337,-0.0799 -0.11289,0.0574 -0.13782,0.16849 -0.0807,0.29081 0.24031,0.47112 0.64526,0.74224 1.06055,0.87891 0.41528,0.13667 0.8457,0.15091 1.19922,0.13672 1.03841,-0.0417 2.35223,-0.68059 3.38867,-1.53711 0.10232,0.0763 0.49516,0.3753 1.13281,0.76367 0.71451,0.43518 1.57569,0.89711 2.29297,0.96875 1.54391,0.15422 2.30335,-0.52929 2.70844,-1.17093 0.0594,-0.12038 0.055,-0.22058 -0.0685,-0.28913 -0.10451,-0.058 -0.25357,-0.0453 -0.31374,0.048 -0.3582,0.55538 -0.87544,1.08964 -2.28125,0.94922 -0.54376,-0.0543 -1.40322,-0.48253 -2.0957,-0.9043 -0.69248,-0.42176 -1.23047,-0.82812 -1.23047,-0.82812 z"
         id="path1684"
         sodipodi:nodetypes="ccsscscsscsscsssscc"
         inkscape:transform-center-x="-0.1578967"
         inkscape:transform-center-y="-10.321825" />
      <path
         style="fill:none;stroke:#000000;stroke-width:0.565;stroke-linecap:butt;stroke-linejoin:miter;stroke-miterlimit:4;stroke-dasharray:none;stroke-opacity:1"
         d="m 117.63001,109.1996 c 0.14369,1.32764 0.99684,6.955 3.91298,7.15221 1.81781,0.12293 3.6723,-4.49763 3.91299,-6.86716"
         id="path1686"
         sodipodi:nodetypes="csc"
         inkscape:transform-center-x="-0.13781169"
         inkscape:transform-center-y="-6.0194494" />
      <path
         style="fill:#000000;stroke:#000000;stroke-width:0.108366;stroke-linejoin:round;stroke-miterlimit:4;stroke-dasharray:none"
         d="m 97.214523,91.315504 c -3.02001,-1.50202 -5.52423,-3.20052 -7.49374,-5.08267 -1.0931,-1.044619 -2.13876,-2.421319 -1.96636,-2.588899 0.21658,-0.21054 2.08597,-0.34973 3.7974,-0.28273 1.63123,0.0639 3.06255,0.20791 3.17568,0.31961 0.0272,0.0269 0.0938,0.35792 0.148,0.73563 0.23335,1.626979 1.31101,4.050779 2.76102,6.209879 0.45407,0.67612 0.81341,1.24133 0.79852,1.25603 -0.0149,0.0147 -0.56412,-0.24039 -1.22052,-0.56685 z"
         id="path1688"
         inkscape:transform-center-x="28.319599"
         inkscape:transform-center-y="-31.18276" />
      <path
         style="fill:#000000;stroke:#000000;stroke-width:0.11597;stroke-linejoin:round;stroke-miterlimit:4;stroke-dasharray:none"
         d="m 145.9743,92.220334 c 0,-0.0201 0.34753,-0.59978 0.77229,-1.28813 0.42477,-0.68834 1.07746,-1.86983 1.45043,-2.62553 0.6635,-1.34439 1.64119,-3.792019 1.64119,-4.108719 0,-0.18219 0.24364,-0.23386 2.04904,-0.43452 1.64513,-0.18285 6.43553,-0.201 6.61562,-0.0251 0.26642,0.26027 -3.01443,2.914709 -6.113,4.945859 -2.51593,1.64923 -6.41557,3.79861 -6.41557,3.53611 z"
         id="path1690"
         inkscape:transform-center-x="-30.841007"
         inkscape:transform-center-y="-30.867304" />
      <path
         style="fill:#e42727;fill-opacity:1;stroke:#000000;stroke-width:0.547;stroke-linejoin:round;stroke-miterlimit:4;stroke-dasharray:none"
         d="m 106.45869,113.7649 c -1.04487,-1.18832 -1.6888,-3.05028 -1.47157,-5.06194 0.12775,-1.18307 0.27728,-1.32317 1.01828,-1.5698 0.70438,-0.23443 1.2226,-0.12946 1.84671,0.19223 1.89932,0.97899 2.86082,3.79617 1.93009,5.65512 -0.45383,0.90641 -1.0234,1.38008 -1.93169,1.46735 -0.7063,0.0679 -0.73326,0.066 -1.39182,-0.68296 z"
         id="path1692"
         sodipodi:nodetypes="sssssss"
         inkscape:transform-center-x="13.862029"
         inkscape:transform-center-y="-8.0556" />
      <path
         style="fill:#e42727;fill-opacity:1;stroke:none;stroke-width:0.150435;stroke-linejoin:round;stroke-miterlimit:4;stroke-dasharray:none"
         d="m 132.88872,113.83249 c -0.47325,-1.06324 -0.80177,-2.41937 -0.12586,-3.86166 0.8436,-1.80012 2.98746,-2.60256 4.37633,-1.85879 l 0.48087,0.25751 c 0,0 0.0565,1.14632 0.0396,1.36336 -0.0733,0.94485 -0.23682,1.96139 -0.55378,2.74124 -0.39204,0.96458 -0.98805,1.79565 -1.68942,2.48055 -0.29749,0.2905 -0.3346,0.37571 -0.48573,0.5068 -0.11912,0.0157 -0.4115,-0.0962 -0.78938,-0.24449 -0.56967,-0.22363 -1.0113,-0.85072 -1.25282,-1.38452 z"
         id="path1694"
         sodipodi:nodetypes="csscssscscc"
         inkscape:transform-center-x="-13.615604"
         inkscape:transform-center-y="-7.1470999" />
      <path
         style="fill:none;stroke:#000000;stroke-width:0.565;stroke-linecap:butt;stroke-linejoin:miter;stroke-miterlimit:4;stroke-dasharray:none;stroke-opacity:1"
         d="m 138.04444,108.55105 c -1.27285,-1.08022 -4.70403,-0.85613 -5.53378,1.90568 -0.80571,2.68175 1.22147,5.06718 2.82186,5.13066"
         id="path1696"
         sodipodi:nodetypes="csc"
         inkscape:transform-center-x="-13.781054"
         inkscape:transform-center-y="-7.0282001" />
      <path
         style="fill:#6d1f11;fill-opacity:1;stroke:#000000;stroke-width:0.111;stroke-linejoin:round;stroke-miterlimit:4;stroke-dasharray:none"
         d="m 121.20608,115.98252 c -1.4083,-0.37972 -2.56156,-2.53559 -3.12827,-5.84787 l -0.11793,-0.68928 0.29729,-0.0351 c 0.36259,-0.0428 1.12438,-0.29299 1.56476,-0.51396 0.35682,-0.17904 1.12215,-0.66382 1.3521,-0.85646 l 0.14567,-0.12204 0.2911,0.21504 c 0.41251,0.30475 1.31393,0.84538 1.80162,1.08053 0.43666,0.21056 1.02578,0.39144 1.43821,0.4416 0.20979,0.0255 0.24612,0.0467 0.24572,0.14337 -8e-4,0.19892 -0.24197,1.18161 -0.44118,1.79783 -0.71711,2.21828 -1.75188,3.92104 -2.63179,4.33071 -0.2986,0.13902 -0.46571,0.15039 -0.8173,0.0556 z"
         id="path1698"
         inkscape:transform-center-x="-0.12293331"
         inkscape:transform-center-y="-6.8153643" />
      <path
         style="fill:#ef7477;fill-opacity:1;stroke:none;stroke-width:0.0217431;stroke-linejoin:round;stroke-miterlimit:4;stroke-dasharray:none"
         d="m 121.22168,115.89456 c -0.82048,-0.26017 -1.53983,-1.06715 -2.09699,-2.35245 -0.18007,-0.41542 -0.62396,-1.70675 -0.62396,-1.8152 0,-0.14768 1.104,-0.7303 1.7472,-0.92206 0.61167,-0.18236 1.59527,-0.22686 2.25777,-0.10216 0.78951,0.14861 2.05886,0.66092 2.05886,0.83097 0,0.16578 -0.39632,1.18849 -0.73307,1.89168 -0.75624,1.57918 -1.61315,2.54678 -2.24702,2.53728 -0.0855,-0.001 -0.24877,-0.0319 -0.36279,-0.0681 z"
         id="path1700"
         inkscape:transform-center-x="-0.12746119"
         inkscape:transform-center-y="-5.4989582" />
      <path
         style="fill:#b21c32;fill-opacity:1;stroke:none;stroke-width:0.0217431;stroke-linejoin:round;stroke-miterlimit:4;stroke-dasharray:none"
         d="m 118.54735,111.97806 c -0.0824,-0.24804 -0.0822,-0.26774 0.004,-0.36326 0.14775,-0.16326 1.36719,-0.75793 1.81719,-0.87745 0.6214,-0.16506 1.80099,-0.16578 2.40999,-0.002 0.54453,0.14691 1.54678,0.56491 1.71795,0.6972 l 0.12751,0.0985 -0.0913,0.28957 c -0.0502,0.15927 -0.1025,0.28957 -0.11621,0.28957 -0.0137,0 -0.11164,-0.0374 -0.21762,-0.083 -1.47421,-0.63519 -3.15021,-0.78693 -4.49312,-0.29683 -0.22715,0.0829 -0.53792,0.22123 -0.6906,0.3074 -0.15269,0.0862 -0.34681,0.19781 -0.35846,0.20202 -0.0448,0.0162 -0.0617,-0.11802 -0.10964,-0.26226 z"
         id="path1702"
         sodipodi:nodetypes="ccscccsscssscc"
         inkscape:transform-center-x="-0.14986878"
         inkscape:transform-center-y="-7.3692847" />
      <path
         style="fill:none;stroke:#000000;stroke-width:0.565;stroke-linecap:butt;stroke-linejoin:miter;stroke-miterlimit:4;stroke-dasharray:none;stroke-opacity:1"
         d="m 118.32544,111.725 c 2.62864,-1.81522 4.59647,-1.07534 6.50436,-0.10365"
         id="path1704"
         sodipodi:nodetypes="cc"
         inkscape:transform-center-x="-0.17243619"
         inkscape:transform-center-y="-7.6264215" />
      <path
         style="fill:#e5d337;fill-opacity:1;stroke:none;stroke-width:0.156517;stroke-linejoin:round;stroke-miterlimit:4;stroke-dasharray:none"
         d="m 101.48972,93.05554 c -0.66728,-0.23059 -1.602387,-0.589403 -2.078033,-0.79736 l -0.864806,-0.378034 -0.323523,-0.502765 c -0.629729,-0.978587 -1.121057,-1.803867 -1.085316,-1.822991 0.01991,-0.0107 0.505191,0.182864 1.078342,0.430195 1.53195,0.660801 6.420136,2.141325 7.913426,2.396891 1.23971,0.212097 2.25111,0.316784 3.16624,0.32775 0.36515,0.0044 0.67378,0.0264 0.68584,0.04896 0.0126,0.02248 -0.20538,0.224965 -0.48321,0.449792 -0.27783,0.224827 -0.68679,0.587078 -0.90879,0.804997 -0.22201,0.217908 -0.46898,0.409264 -0.54883,0.42523 -0.2485,0.04966 -2.08155,-0.184154 -3.02411,-0.385773 -1.27579,-0.272914 -2.1377,-0.516476 -3.52727,-0.996763 z"
         id="path1706"
         inkscape:transform-center-x="12.546601"
         inkscape:transform-center-y="-12.205554" />
    </g>
  </g>
</svg>
